<?xml version="1.0" encoding="UTF-8"?>
<svg width="526px" height="935px" viewBox="0 0 526 935" version="1.1" xmlns="http://www.w3.org/2000/svg" xmlns:xlink="http://www.w3.org/1999/xlink">
    <!-- Generator: Sketch 54.1 (76490) - https://sketchapp.com -->
    <title>download</title>
    <desc>Created with Sketch.</desc>
    <g id="Page-1" stroke="none" stroke-width="1" fill="none" fill-rule="evenodd">
        <g id="Browser" transform="translate(-786.000000, -40.000000)" fill-rule="nonzero">
            <g id="download" transform="translate(800.000000, 41.000000)">
                <path d="M106.937024,933.948771 C168.501718,928.241765 233.907362,912.485251 291.213371,891.584124 C341.027259,873.388699 382.157008,849.907605 414.640317,821.008572 C446.972961,792.506727 471.965545,756.449826 487.419339,715.99188 C502.989163,675.497197 510.741447,628.958546 510.741447,576.444523 L510.741447,324.014569 C510.741447,267.122219 510.94432,217.814036 511.349857,176.129709 C511.7824,131.625734 512,94.880098 512,62.8617749 L488,62.8617749 C488,94.792324 487.782838,131.464111 487.350991,175.896345 C486.944632,217.665181 486.741447,267.049297 486.741447,324.014569 L486.741447,576.444523 C486.741447,626.147433 479.472295,669.785738 465.008674,707.403435 C450.930801,744.259146 428.184283,777.075637 398.728835,803.04133 C368.596221,829.848882 330.087094,851.833855 282.984426,869.03896 C227.519769,889.268492 164.097948,904.547094 104.721738,910.051229 L106.937024,933.948771 Z" id="Path" fill="#03A9F4"></path>
                <path d="M13.4851586,697.605632 C40.5168524,694.101014 67.3220026,688.995846 93.7600762,682.315601 C119.840287,675.774268 144.360525,664.03165 165.844979,647.790772 L165.986174,647.68223 C188.069445,630.419819 204.805124,608.644402 216.122453,582.483884 C227.299286,556.44796 232.780945,522.712631 232.780945,481.150948 C232.780945,459.560481 232.170428,299.206562 230.948963,-0.0448987248 L208.949146,0.0448987248 C210.170202,299.195998 210.780945,459.609377 210.780945,481.150948 C210.780945,519.961487 205.762432,550.846517 195.918694,573.777152 C186.0786,596.522866 171.64222,615.318673 152.507134,630.294749 C133.39606,644.726507 111.592708,655.161453 88.389249,660.981266 C58.9091025,668.430151 28.9768836,673.853945 -1.2185952,677.219759 L-13.5103476,678.58989 L29.2309899,862.834712 L38.7876414,861.953536 C106.957766,855.667873 165.806936,843.562024 215.314466,825.60141 C265.068569,807.551342 306.249688,784.161589 338.739872,755.410412 C371.030104,727.079163 395.984674,691.247965 411.413185,651.044192 C427.011119,610.843573 434.777467,564.541943 434.777467,512.233789 C435.026711,417.711187 435.43532,246.965664 436.003259,0.025298868 L414.003317,-0.025298868 C413.435384,246.912705 413.026779,417.656374 412.777505,512.204788 C412.777467,561.944973 405.460656,605.566538 390.888309,643.124103 C376.72308,680.035793 353.83744,712.896304 324.195384,738.90418 C293.863847,765.744998 255.085482,787.770051 207.811662,804.920309 C162.501667,821.358119 108.653574,832.778591 46.3140924,839.12103 L13.4851586,697.605632 Z" id="Path" fill="#979797"></path>
            </g>
        </g>
    </g>
</svg>